<svg width="80" height="80" viewBox="0 0 80 80" fill="none" xmlns="http://www.w3.org/2000/svg">
<path d="M40.1597 76.412C35.2285 76.412 30.4441 75.446 25.9401 73.5408C21.5897 71.7008 17.6833 69.0668 14.3285 65.7124C10.9737 62.3576 8.34011 58.4512 6.50011 54.1008C4.59491 49.5964 3.62891 44.8124 3.62891 39.8808C3.62891 34.9492 4.59491 30.1652 6.50011 25.6608C8.34011 21.3104 10.9741 17.404 14.3285 14.0492C17.6833 10.6944 21.5897 8.06081 25.9401 6.22081C30.4445 4.31561 35.2285 3.34961 40.1597 3.34961C45.0909 3.34961 49.8753 4.31561 54.3797 6.22081C58.7301 8.06081 62.6365 10.6948 65.9913 14.0492C69.3461 17.404 71.9797 21.3104 73.8197 25.6608C75.7249 30.1652 76.6909 34.9492 76.6909 39.8808C76.6909 44.8124 75.7249 49.5964 73.8197 54.1008C71.9797 58.4512 69.3457 62.3576 65.9913 65.7124C62.6365 69.0672 58.7301 71.7008 54.3797 73.5408C49.8753 75.446 45.0913 76.412 40.1597 76.412ZM40.1597 5.06321C35.4589 5.06321 30.8993 5.98361 26.6073 7.79881C22.4613 9.55241 18.7377 12.0628 15.5397 15.2608C12.3417 18.4588 9.83131 22.1824 8.07771 26.3284C6.26251 30.6204 5.34211 35.18 5.34211 39.8808C5.34211 44.5816 6.26251 49.1412 8.07771 53.4332C9.83131 57.5792 12.3421 61.3028 15.5397 64.5008C18.7377 67.6988 22.4613 70.2092 26.6073 71.9628C30.8993 73.778 35.4589 74.6984 40.1597 74.6984C44.8605 74.6984 49.4201 73.778 53.7121 71.9628C57.8581 70.2092 61.5817 67.6988 64.7797 64.5008C67.9777 61.3028 70.4881 57.5792 72.2417 53.4332C74.0569 49.1412 74.9773 44.5816 74.9773 39.8808C74.9773 35.18 74.0569 30.6204 72.2417 26.3284C70.4881 22.1824 67.9773 18.4588 64.7797 15.2608C61.5817 12.0628 57.8581 9.55241 53.7121 7.79881C49.4201 5.98361 44.8605 5.06321 40.1597 5.06321Z" fill="url(#paint0_linear_154_5239)"/>
<path d="M39.6842 63.3293C39.5582 63.3293 39.4318 63.2977 39.3058 63.2033L27.0962 55.5369C27.0646 55.5053 27.033 55.5053 27.033 55.4737C26.8122 55.3161 21.9534 51.2145 22.0482 46.6713V25.0917C22.0482 24.8077 22.2374 24.5237 22.5214 24.4293L38.7062 18.1509C38.8638 18.0877 39.0534 18.0877 39.211 18.1509L55.743 24.4293C56.027 24.5241 56.2162 24.8077 56.2162 25.0917L56.5946 45.7881C56.5946 46.0089 56.7206 51.8457 50.3794 56.2941L40.1258 63.2349C39.9682 63.2981 39.8102 63.3297 39.6842 63.3297V63.3293ZM27.9162 54.3377L39.6842 61.7201L49.559 55.0633C51.925 53.4229 53.5974 51.3405 54.5122 48.9429C55.1746 47.1445 55.1746 45.8197 55.1746 45.7881L54.8274 25.5649L38.9266 19.5705L23.4674 25.5649V46.7029C23.4042 50.3941 27.5058 53.9909 27.9158 54.3377H27.9162Z" fill="#4480F5"/>
<path d="M52.7141 27.0801L39.2109 22.0005C39.0529 21.9373 38.8637 21.9373 38.7061 22.0005L25.3925 27.0801C25.1085 27.2061 24.9189 27.4585 24.9189 27.7741L25.1713 44.5901C25.2657 49.4485 29.9673 53.4233 31.7337 54.1177C33.0273 54.6225 37.4441 57.9669 39.0529 59.1973C39.1793 59.2921 39.3373 59.3553 39.4945 59.3553C39.6517 59.3553 39.8101 59.2921 39.9681 59.1973C40.0313 59.1341 44.7633 55.1273 48.6441 52.9821C52.9345 50.5845 53.187 43.8645 53.187 43.5805V27.7425C53.187 27.4585 52.9977 27.1749 52.7137 27.0801H52.7141ZM51.7362 43.5169C51.7362 43.8009 51.4518 49.7321 47.9501 51.6881C44.6057 53.5497 40.7881 56.6101 39.4945 57.6825C38.0437 56.5469 33.7845 53.3289 32.3017 52.7613C30.6925 52.1617 26.7489 48.5021 26.6541 44.5581L26.3857 29.1273L38.9269 24.0513L51.7362 28.9109V43.5169Z" fill="url(#paint1_linear_154_5239)"/>
<path d="M45.3944 36.8291H44.4404L44.3852 35.1251C44.3852 34.3995 44.2272 33.8635 44.164 33.7055C43.738 32.3807 42.8944 31.5447 42.0032 31.0395C41.112 30.5347 40.1728 30.3615 39.558 30.3615C38.4856 30.3295 35.9296 30.6135 34.668 33.9267C34.668 33.9267 34.636 33.9579 34.636 33.9895C34.6048 34.0527 34.4468 34.6835 34.4156 35.3775V35.4095L34.4436 36.8291H33.28C32.586 36.8291 32.0176 37.3971 32.0176 38.0915V46.3571C32.0176 47.0511 32.5856 47.6187 33.28 47.6187H45.3944C46.0884 47.6187 46.6568 47.0511 46.6568 46.3571V38.0915C46.6568 37.3975 46.0888 36.8291 45.3944 36.8291ZM36.3716 34.5263C36.7504 33.6427 37.6024 32.1915 39.3692 32.1915H39.5272C39.6216 32.1915 41.7356 32.2227 42.398 34.2739V34.3051C42.398 34.3051 42.4924 34.6207 42.4924 35.0623V35.1251L42.5476 36.8291H36.274L36.2456 35.4095C36.2456 35.0307 36.3404 34.6523 36.3716 34.5263ZM45.5524 46.3571C45.5524 46.4515 45.4896 46.5151 45.3944 46.5151H33.28C33.1852 46.5151 33.122 46.4519 33.122 46.3571V38.0915C33.122 37.9971 33.1852 37.9335 33.28 37.9335H45.3944C45.4896 37.9335 45.5524 37.9967 45.5524 38.0915V46.3571Z" fill="#CCEAF9"/>
<path d="M43.713 37.9336C43.6358 37.954 43.5546 37.9648 43.4702 37.9648C43.3858 37.9648 43.303 37.954 43.2246 37.9336H43.713Z" fill="#CCEAF9"/>
<path d="M40.5682 41.7176C40.5682 42.092 40.3802 42.4216 40.0946 42.6276V44.6204H38.833V42.7076C38.479 42.5144 38.2334 42.1448 38.2334 41.7176C38.2334 41.0868 38.7382 40.582 39.4006 40.582C40.063 40.582 40.5682 41.0868 40.5682 41.7176Z" fill="#CCEAF9"/>
<path d="M43.6016 75.7916C43.6016 77.708 42.0428 79.2676 40.1264 79.2676C38.21 79.2676 36.6504 77.708 36.6504 75.7916C36.6504 73.8752 38.21 72.3164 40.1264 72.3164C42.0428 72.3164 43.6016 73.8752 43.6016 75.7916Z" fill="url(#paint2_linear_154_5239)"/>
<path d="M43.4442 4.20647C43.4442 6.12287 41.8846 7.68247 39.9682 7.68247C38.0518 7.68247 36.4922 6.12287 36.4922 4.20647C36.4922 2.29007 38.0518 0.730469 39.9682 0.730469C41.8846 0.730469 43.4442 2.29007 43.4442 4.20647Z" fill="url(#paint3_linear_154_5239)"/>
<path d="M79.284 40.4252C79.284 42.3416 77.7244 43.9004 75.808 43.9004C73.8916 43.9004 72.332 42.3416 72.332 40.4252C72.332 38.5088 73.8916 36.9492 75.808 36.9492C77.7244 36.9492 79.284 38.508 79.284 40.4252Z" fill="url(#paint4_linear_154_5239)"/>
<path d="M7.66702 40.2983C7.66702 42.2147 6.10822 43.7743 4.19182 43.7743C2.27542 43.7743 0.71582 42.2147 0.71582 40.2983C0.71582 38.3819 2.27462 36.8223 4.19182 36.8223C6.10902 36.8223 7.66702 38.3819 7.66702 40.2983Z" fill="url(#paint5_linear_154_5239)"/>
<defs>
<linearGradient id="paint0_linear_154_5239" x1="3.62851" y1="39.8808" x2="76.6909" y2="39.8808" gradientUnits="userSpaceOnUse">
<stop stop-color="white"/>
<stop offset="0.94" stop-color="#48AFFB"/>
</linearGradient>
<linearGradient id="paint1_linear_154_5239" x1="24.9189" y1="40.6541" x2="53.187" y2="40.6541" gradientUnits="userSpaceOnUse">
<stop stop-color="#C1E6F8"/>
<stop offset="0.94" stop-color="#19A1D9"/>
</linearGradient>
<linearGradient id="paint2_linear_154_5239" x1="36.6504" y1="75.7916" x2="43.6016" y2="75.7916" gradientUnits="userSpaceOnUse">
<stop stop-color="#86FFFD"/>
<stop offset="0.16" stop-color="#84FBFF"/>
<stop offset="0.78" stop-color="#4480F5"/>
</linearGradient>
<linearGradient id="paint3_linear_154_5239" x1="36.4922" y1="4.20647" x2="43.4442" y2="4.20647" gradientUnits="userSpaceOnUse">
<stop stop-color="#86FFFD"/>
<stop offset="0.16" stop-color="#84FBFF"/>
<stop offset="0.78" stop-color="#4480F5"/>
</linearGradient>
<linearGradient id="paint4_linear_154_5239" x1="72.332" y1="40.4248" x2="79.284" y2="40.4248" gradientUnits="userSpaceOnUse">
<stop stop-color="#86FFFD"/>
<stop offset="0.16" stop-color="#84FBFF"/>
<stop offset="0.78" stop-color="#4480F5"/>
</linearGradient>
<linearGradient id="paint5_linear_154_5239" x1="0.71542" y1="40.2983" x2="7.66702" y2="40.2983" gradientUnits="userSpaceOnUse">
<stop stop-color="#86FFFD"/>
<stop offset="0.16" stop-color="#84FBFF"/>
<stop offset="0.78" stop-color="#4480F5"/>
</linearGradient>
</defs>
</svg>
