<svg width="38" height="38" viewBox="0 0 38 38" fill="none" xmlns="http://www.w3.org/2000/svg">
<g clip-path="url(#clip0_154_2584)">
<path d="M19 38C29.4934 38 38 29.4934 38 19C38 8.50659 29.4934 0 19 0C8.50659 0 0 8.50659 0 19C0 29.4934 8.50659 38 19 38Z" fill="url(#paint0_linear_154_2584)"/>
<path d="M19.0005 36.686C28.7769 36.686 36.7022 28.7607 36.7022 18.9844C36.7022 9.20802 28.7769 1.28271 19.0005 1.28271C9.22413 1.28271 1.29883 9.20802 1.29883 18.9844C1.29883 28.7607 9.22413 36.686 19.0005 36.686Z" fill="url(#paint1_linear_154_2584)"/>
<path d="M29.1022 8.2334H8.86719V26.6476H29.1022V8.2334Z" fill="white"/>
<path fill-rule="evenodd" clip-rule="evenodd" d="M35.3722 19.0001C35.3722 28.0409 28.0414 35.3717 19.0006 35.3717C9.95974 35.3717 2.62891 28.0409 2.62891 19.0001C2.62891 9.95925 9.95974 2.62842 19.0006 2.62842C28.0414 2.62842 35.3722 9.95925 35.3722 19.0001ZM14.3614 25.5234H11.1789C10.5139 25.5234 10.1814 25.5234 9.97557 25.3968C9.75391 25.2543 9.62724 25.0168 9.61141 24.7634C9.61141 24.5259 9.76974 24.2409 10.0864 23.6551L17.9397 9.81675C18.2722 9.23092 18.4464 8.93008 18.6522 8.81925C18.8739 8.70842 19.1589 8.70842 19.3806 8.81925C19.5864 8.93008 19.7606 9.21508 20.0931 9.81675L21.7081 12.6351C22.0722 13.2843 22.2464 13.6009 22.3256 13.9334C22.4206 14.2976 22.4206 14.6934 22.3256 15.0576C22.2464 15.3901 22.0564 15.7226 21.6922 16.3559L17.5756 23.6393C17.2114 24.2884 17.0214 24.6209 16.7681 24.8584C16.4831 25.1276 16.1506 25.3176 15.7864 25.4284C15.4539 25.5234 15.0739 25.5234 14.3297 25.5234H14.3614ZM22.3889 25.5234H26.9489C27.6139 25.5234 27.9622 25.5234 28.1681 25.3968C28.3897 25.2543 28.5164 25.0168 28.5322 24.7634C28.5322 24.5259 28.3897 24.2568 28.0731 23.7026C28.0731 23.6868 28.0572 23.6709 28.0414 23.6393L25.7614 19.7443L25.7297 19.6968C25.4131 19.1584 25.2547 18.8734 25.0331 18.7784C24.8114 18.6676 24.5264 18.6676 24.3047 18.7784C24.0989 18.8892 23.9247 19.1743 23.5922 19.7443L21.3122 23.6393C20.9797 24.2251 20.8056 24.5101 20.8214 24.7476C20.8372 25.0009 20.9639 25.2384 21.1856 25.3809C21.3756 25.5076 21.7239 25.5076 22.3889 25.5076V25.5234Z" fill="#E84142"/>
</g>
<defs>
<linearGradient id="paint0_linear_154_2584" x1="0" y1="19" x2="38" y2="19" gradientUnits="userSpaceOnUse">
<stop stop-color="#B0B1B1"/>
<stop offset="0.04" stop-color="#C4C5C5"/>
<stop offset="0.15" stop-color="#EEEEEE"/>
<stop offset="0.2" stop-color="white"/>
<stop offset="0.52" stop-color="white"/>
<stop offset="0.81" stop-color="white"/>
<stop offset="0.99" stop-color="#BEBEBE"/>
</linearGradient>
<linearGradient id="paint1_linear_154_2584" x1="1.29883" y1="18.9844" x2="36.7022" y2="18.9844" gradientUnits="userSpaceOnUse">
<stop stop-color="#B0B1B1"/>
<stop offset="0.04" stop-color="#C4C5C5"/>
<stop offset="0.15" stop-color="#EEEEEE"/>
<stop offset="0.2" stop-color="white"/>
<stop offset="0.52" stop-color="white"/>
<stop offset="0.81" stop-color="white"/>
<stop offset="0.99" stop-color="#BEBEBE"/>
</linearGradient>
<clipPath id="clip0_154_2584">
<rect width="38" height="38" rx="19" fill="white"/>
</clipPath>
</defs>
</svg>
