<svg width="38" height="38" viewBox="0 0 38 38" fill="none" xmlns="http://www.w3.org/2000/svg">
<g clip-path="url(#clip0_154_2596)">
<path d="M19 38C29.4934 38 38 29.4934 38 19C38 8.50659 29.4934 0 19 0C8.50659 0 0 8.50659 0 19C0 29.4934 8.50659 38 19 38Z" fill="url(#paint0_linear_154_2596)"/>
<path d="M19.0005 36.686C28.7769 36.686 36.7022 28.7607 36.7022 18.9844C36.7022 9.20802 28.7769 1.28271 19.0005 1.28271C9.22413 1.28271 1.29883 9.20802 1.29883 18.9844C1.29883 28.7607 9.22413 36.686 19.0005 36.686Z" fill="url(#paint1_linear_154_2596)"/>
<path d="M18.9995 35.4349C28.0763 35.4349 35.4345 28.0767 35.4345 18.9999C35.4345 9.92314 28.0763 2.56494 18.9995 2.56494C9.92265 2.56494 2.56445 9.92314 2.56445 18.9999C2.56445 28.0767 9.92265 35.4349 18.9995 35.4349Z" fill="black"/>
<path fill-rule="evenodd" clip-rule="evenodd" d="M19.0001 2.47021C28.1042 2.47021 35.4826 9.84855 35.4826 18.9527C35.4826 28.0569 28.1042 35.4352 19.0001 35.4352C9.89591 35.4352 2.51758 28.0569 2.51758 18.9527C2.51758 9.84855 9.89591 2.47021 19.0001 2.47021Z" fill="#F0B90B"/>
<path d="M11.5908 18.9529V23.307L15.3117 25.492V28.0412L9.4375 24.6054V17.6862L11.5908 18.9687V18.9529ZM11.5908 14.5987V17.132L9.4375 15.8495V13.3162L11.5908 12.0337L13.76 13.3162L11.5908 14.5987ZM16.8475 13.3162L19.0008 12.0337L21.17 13.3162L19.0008 14.5987L16.8475 13.3162Z" fill="white"/>
<path d="M13.1426 22.4045V19.8554L15.2959 21.1379V23.6712L13.1426 22.4045ZM16.8476 26.4104L19.0009 27.6929L21.1701 26.4104V28.9437L19.0009 30.2262L16.8476 28.9437V26.4104ZM24.2576 13.3162L26.4109 12.0337L28.5801 13.3162V15.8495L26.4109 17.132V14.5987L24.2576 13.3162ZM26.4267 23.307V18.9529L28.5959 17.6704V24.5895L22.7217 28.0254V25.4762L26.4267 23.2912V23.307Z" fill="white"/>
<path d="M24.874 22.4041L22.7207 23.6708V21.1375L24.874 19.855V22.4041Z" fill="white"/>
<path d="M24.8751 15.5011V18.0503L21.1701 20.2353V24.6053L19.0167 25.872L16.8634 24.6053V20.2353L13.1426 18.0503V15.5011L15.3117 14.2186L19.0009 16.4036L22.7217 14.2186L24.8909 15.5011H24.8751ZM13.1426 11.147L19.0009 7.69531L24.8751 11.147L22.7217 12.4295L19.0009 10.2445L15.2959 12.4295L13.1426 11.147Z" fill="white"/>
</g>
<defs>
<linearGradient id="paint0_linear_154_2596" x1="0" y1="19" x2="38" y2="19" gradientUnits="userSpaceOnUse">
<stop stop-color="#B0B1B1"/>
<stop offset="0.04" stop-color="#C4C5C5"/>
<stop offset="0.15" stop-color="#EEEEEE"/>
<stop offset="0.2" stop-color="white"/>
<stop offset="0.52" stop-color="white"/>
<stop offset="0.81" stop-color="white"/>
<stop offset="0.99" stop-color="#BEBEBE"/>
</linearGradient>
<linearGradient id="paint1_linear_154_2596" x1="1.29883" y1="18.9844" x2="36.7022" y2="18.9844" gradientUnits="userSpaceOnUse">
<stop stop-color="#B0B1B1"/>
<stop offset="0.04" stop-color="#C4C5C5"/>
<stop offset="0.15" stop-color="#EEEEEE"/>
<stop offset="0.2" stop-color="white"/>
<stop offset="0.52" stop-color="white"/>
<stop offset="0.81" stop-color="white"/>
<stop offset="0.99" stop-color="#BEBEBE"/>
</linearGradient>
<clipPath id="clip0_154_2596">
<rect width="38" height="38" rx="19" fill="white"/>
</clipPath>
</defs>
</svg>
