<svg width="106" height="40" viewBox="0 0 106 40" fill="none" xmlns="http://www.w3.org/2000/svg">
<path d="M10.2514 12.1203H9.95117C10.05 12.1005 10.1525 12.1005 10.2514 12.1203Z" fill="#F9AC1A"/>
<path d="M10.338 11.6876L10.2953 12.1206L10.2519 12.5622H9.95141L9.90793 12.1206L9.86523 11.6876C9.88102 11.6845 9.89706 11.6817 9.91311 11.6791C10.0381 11.6591 10.1647 11.6591 10.2896 11.6791C10.306 11.6817 10.322 11.6845 10.338 11.6876Z" fill="#F9AC1A"/>
<path d="M9.9082 12.1211L9.95168 12.5627H10.2521L10.2956 12.1211H9.9082Z" fill="#F9AC1A"/>
<path d="M19.8585 0.330078C12.0079 0.330078 4.98045 5.07294 1.95495 12.4129C0.966118 14.8122 0.464844 17.3579 0.464844 19.9799C0.464844 30.8148 9.16481 39.6298 19.8585 39.6298C30.5522 39.6298 39.2519 30.8148 39.2519 19.9799C39.2519 9.14514 30.5522 0.330078 19.8585 0.330078ZM2.84726 19.9799C2.84726 17.9454 3.19093 15.9605 3.86947 14.0745L9.59285 14.0703L14.7161 19.6506L9.30327 25.9597L3.92201 26.0197C3.20853 24.0911 2.84726 22.0607 2.84726 19.9799ZM23.12 19.3493L18.585 14.0651L20.6532 14.0638C20.7179 14.0667 21.2772 14.1012 22.0062 14.4488C23.0413 14.9418 23.8783 15.795 24.4937 16.9844C24.5164 17.0296 25.8008 19.6324 24.9031 22.1903C24.7033 22.7592 24.3257 23.5896 23.6619 24.3148C22.9127 25.1329 21.9617 25.6425 20.8346 25.8296L18.8839 25.8516L23.1213 20.9093C23.5025 20.4644 23.5017 19.7937 23.12 19.3493ZM20.9444 28.2194C21.0013 28.2192 21.058 28.2148 21.1128 28.2059C22.8064 27.9483 24.2336 27.207 25.3544 26.0023C26.3171 24.9677 26.8554 23.7927 27.1372 22.9893C28.3926 19.4148 26.6706 16.022 26.5966 15.8797C26.1145 14.9477 25.5146 14.1483 24.814 13.5028C24.246 12.9797 23.6107 12.5563 22.9257 12.2441C21.7699 11.7176 20.8515 11.6758 20.6789 11.6727H20.675L16.5346 11.6753L14.8778 9.74514L18.5024 9.79709H18.557C21.847 9.69112 24.2445 10.9062 24.2884 10.9288L24.2895 10.9296C26.5961 12.1337 28.2609 13.9262 29.2373 16.2571C29.952 17.9631 30.0191 19.3542 30.0219 19.4267C30.0222 19.4501 30.0235 19.4698 30.0248 19.4867V19.4911C30.2315 22.1888 29.4549 24.5854 27.7171 26.614C27.6682 26.6703 27.6286 26.7215 27.5877 26.7953C27.4956 26.9301 26.6582 28.0688 23.8928 29.2618C22.9236 29.6792 21.0293 29.9485 19.1781 29.9309L15.4081 29.9049L16.8136 28.2659L20.9444 28.2194ZM15.4417 14.0667L20.6462 20.1298L15.7093 25.8875L12.4778 25.9238L17.2137 20.4038C17.6091 19.9436 17.5975 19.2599 17.187 18.8135L12.8303 14.0685L15.4417 14.0667ZM19.8585 37.2387C16.6609 37.2387 13.543 36.3296 10.842 34.6098C8.41303 33.0631 6.40923 30.9257 5.01203 28.3989L13.6393 28.3015L11.924 30.3023C11.6223 30.6535 11.5506 31.154 11.7418 31.5779C11.9333 31.9992 12.3552 32.2742 12.8179 32.2784L19.1587 32.3218C19.2214 32.3228 19.2832 32.3228 19.3458 32.3228C20.3981 32.3228 21.457 32.2444 22.4086 32.0963C23.3791 31.9446 24.217 31.7238 24.8324 31.4584C28.1144 30.0433 29.2813 28.5651 29.582 28.1041C31.6707 25.6311 32.6458 22.6 32.4028 19.3355C32.3898 18.9867 32.2814 17.2631 31.3798 15.1755C30.8508 13.9511 30.1454 12.8296 29.2831 11.8415C28.2189 10.622 26.91 9.60203 25.3922 8.8093C25.093 8.6532 22.36 7.28904 18.5097 7.40592L12.3145 7.31761C11.8583 7.31008 11.4339 7.5706 11.2318 7.97891C11.0276 8.38774 11.0767 8.8854 11.357 9.2467L11.8309 9.85813C11.8371 9.86618 11.8435 9.87424 11.85 9.88229L13.3903 11.6768L10.29 11.6789C10.3063 11.6815 10.3224 11.6844 10.3384 11.6875L10.2957 12.1205L10.2522 12.562H9.95179L9.90831 12.1205L9.86561 11.6875C9.8814 11.6844 9.89745 11.6815 9.91349 11.6789L4.93775 11.6823C6.34168 9.07761 8.37887 6.88748 10.8638 5.31943C13.5575 3.61969 16.6679 2.72099 19.8585 2.72099C29.238 2.72099 36.8687 10.4633 36.8687 19.9799C36.8687 29.4966 29.238 37.2387 19.8585 37.2387Z" fill="#F9AC1A"/>
<path d="M10.2896 11.6797H9.91311C9.89706 11.6823 9.88102 11.6851 9.86523 11.6883L9.90793 12.1212L9.95141 12.5628H10.2519L10.2953 12.1212L10.338 11.6883C10.322 11.6851 10.306 11.6823 10.2896 11.6797ZM10.2896 11.6797H9.91311C9.89706 11.6823 9.88102 11.6851 9.86523 11.6883L9.90793 12.1212L9.95141 12.5628H10.2519L10.2953 12.1212L10.338 11.6883C10.322 11.6851 10.306 11.6823 10.2896 11.6797ZM10.2896 11.6797H9.91311C9.89706 11.6823 9.88102 11.6851 9.86523 11.6883L9.90793 12.1212L9.95141 12.5628H10.2519L10.2953 12.1212L10.338 11.6883C10.322 11.6851 10.306 11.6823 10.2896 11.6797Z" fill="#F9AC1A"/>
<path d="M55.4456 6.79518H45.416V23.1554H55.4456C59.4338 23.1554 62.6669 19.9105 62.6669 15.9076V14.0427C62.6669 10.0399 59.4338 6.79492 55.4456 6.79492V6.79518ZM59.4905 15.5744C59.4905 18.0115 57.5222 19.9871 55.094 19.9871H48.8936V10.0521H55.094C57.5222 10.0521 59.4905 12.0276 59.4905 14.4648V15.5744Z" fill="#F9AC1A"/>
<path d="M68.4033 6.79492H65.0352V23.1552H68.4033V6.79492Z" fill="#F9AC1A"/>
<path d="M71.0312 6.79492V23.1554H74.7687V10.464H85.1604V6.79492H71.0312Z" fill="#F9AC1A"/>
<path d="M84.4627 13.502H76.3711V16.7713H84.4627V13.502Z" fill="#F9AC1A"/>
<path d="M98.9208 6.79492H93.3198C89.4108 6.79492 86.2422 9.97544 86.2422 13.8986V16.5658C86.2422 20.4889 89.4111 23.6695 93.3198 23.6695H98.9208C102.83 23.6695 105.998 20.4889 105.998 16.5658V13.8986C105.998 9.97544 102.83 6.79492 98.9208 6.79492ZM103.082 15.6074C103.082 17.9349 101.202 19.8217 98.8833 19.8217H93.8087C91.4897 19.8217 89.6098 17.9349 89.6098 15.6074V14.6666C89.6098 12.3391 91.4897 10.4523 93.8087 10.4523H98.8833C101.202 10.4523 103.082 12.3391 103.082 14.6666V15.6074Z" fill="#F9AC1A"/>
<path d="M45.5371 26.2266H46.4279V32.4032H49.3768V33.1533H45.5371V26.2266Z" fill="#F9AC1A"/>
<path d="M52.2849 30.9746L51.568 33.1533H50.6465L52.9914 26.2266H54.0664L56.4214 33.1533H55.469L54.7317 30.9746H52.2846H52.2849ZM54.5477 30.2759L53.872 28.2821C53.7183 27.8299 53.6161 27.4188 53.5136 27.018H53.4932C53.3907 27.4292 53.2781 27.8505 53.1451 28.2718L52.4694 30.2757H54.548L54.5477 30.2759Z" fill="#F9AC1A"/>
<path d="M58.8386 26.2266V30.3271C58.8386 31.8788 59.5247 32.5367 60.4462 32.5367C61.4702 32.5367 62.1255 31.8582 62.1255 30.3271V26.2266H63.0266V30.2655C63.0266 32.3931 61.9104 33.2666 60.4154 33.2666C59.0024 33.2666 57.9375 32.4546 57.9375 30.3068V26.2268H58.8386V26.2266Z" fill="#F9AC1A"/>
<path d="M65.3694 33.1533V26.2266H66.3422L68.5541 29.731C69.0659 30.5429 69.4655 31.2725 69.7929 31.9816L69.8133 31.9715C69.7313 31.0466 69.7108 30.204 69.7108 29.1247V26.2266H70.5504V33.1533H69.6493L67.4581 29.6385C66.9767 28.8676 66.5161 28.0764 66.1678 27.326L66.137 27.3362C66.1882 28.2097 66.2087 29.0421 66.2087 30.1933V33.1531H65.3691L65.3694 33.1533Z" fill="#F9AC1A"/>
<path d="M77.7286 32.927C77.4009 33.0915 76.7457 33.2559 75.9059 33.2559C73.9606 33.2559 72.4961 32.0226 72.4961 29.7515C72.4961 27.4803 73.9603 26.1133 76.1005 26.1133C76.9607 26.1133 77.5034 26.2985 77.7386 26.4216L77.5236 27.1512C77.1856 26.9868 76.7045 26.8634 76.131 26.8634C74.5131 26.8634 73.4381 27.9013 73.4381 29.7206C73.4381 31.4161 74.4109 32.5055 76.0902 32.5055C76.6328 32.5055 77.1859 32.3925 77.544 32.2177L77.7283 32.9268L77.7286 32.927Z" fill="#F9AC1A"/>
<path d="M80.5353 26.2266V29.1247H83.8734V26.2266H84.7745V33.1533H83.8734V29.9058H80.5353V33.1533H79.6445V26.2266H80.5353Z" fill="#F9AC1A"/>
<path d="M87.1172 26.3093C87.5473 26.2373 88.1104 26.1758 88.8273 26.1758C89.7079 26.1758 90.3528 26.3812 90.7625 26.7514C91.1414 27.0802 91.3668 27.5838 91.3668 28.2005C91.3668 28.8171 91.1825 29.3207 90.8344 29.6805C90.3634 30.1841 89.5956 30.441 88.725 30.441C88.4588 30.441 88.2132 30.4308 88.0082 30.3794V33.1542H87.1174V26.3098L87.1172 26.3093ZM88.0079 29.6493C88.2026 29.7007 88.4481 29.7212 88.7452 29.7212C89.8205 29.7212 90.4758 29.1971 90.4758 28.2412C90.4758 27.2854 89.8306 26.8846 88.8477 26.8846C88.4588 26.8846 88.1617 26.9155 88.0082 26.9566V29.649L88.0079 29.6493Z" fill="#F9AC1A"/>
<path d="M93.6189 30.9746L92.902 33.1533H91.9805L94.3254 26.2266H95.4004L97.7553 33.1533H96.803L96.0657 30.9746H93.6186H93.6189ZM95.882 30.2759L95.2063 28.2821C95.0526 27.8299 94.9503 27.4188 94.8478 27.018H94.8274C94.7249 27.4292 94.6123 27.8505 94.4793 28.2718L93.8036 30.2757H95.8822L95.882 30.2759Z" fill="#F9AC1A"/>
<path d="M99.5684 26.3197C100.111 26.2373 100.756 26.1758 101.463 26.1758C102.743 26.1758 103.654 26.474 104.258 27.0392C104.872 27.6044 105.231 28.4059 105.231 29.5262C105.231 30.6464 104.883 31.5815 104.238 32.2189C103.593 32.8662 102.528 33.2158 101.186 33.2158C100.551 33.2158 100.019 33.1851 99.5684 33.1337V26.3199V26.3197ZM100.459 32.4449C100.684 32.4859 101.012 32.4963 101.36 32.4963C103.265 32.4963 104.299 31.4275 104.299 29.5571C104.309 27.9231 103.388 26.8851 101.504 26.8851C101.043 26.8851 100.695 26.9262 100.459 26.9776V32.4451V32.4449Z" fill="#F9AC1A"/>
</svg>
