<svg width="32" height="32" viewBox="0 0 32 32" fill="none" xmlns="http://www.w3.org/2000/svg">
<path d="M12.0251 24.4802H17.0118C17.6518 24.4402 21.1585 24.0269 23.2518 20.9335C24.7318 18.7202 24.6518 16.3602 24.5451 15.4535C24.4118 14.2135 23.9318 12.4002 22.5318 10.7335C20.4118 8.18688 17.5051 7.66688 16.3585 7.54688H11.4385L13.0918 9.60021H15.9985C18.1318 9.77354 22.0251 11.3602 21.8785 16.0402C21.7051 21.4535 17.7851 22.6802 16.4251 22.6802H13.5585L12.0251 24.4802Z" fill="url(#paint0_linear_267_2063)"/>
<path d="M12.2392 15.8674L7.83921 10.9341H2.90588C2.31921 12.4941 2.02588 14.1474 2.02588 15.8407C2.02588 17.7874 2.42588 19.6541 3.15921 21.3474H7.83921L12.2392 15.8674Z" fill="url(#paint1_linear_267_2063)"/>
<path d="M13.6127 15.4007C13.826 15.6407 13.8394 16.0007 13.6127 16.2541L9.53271 21.3474H12.9327L16.986 16.5741L12.4394 10.9341H9.62605L13.5994 15.4007H13.6127Z" fill="url(#paint2_linear_267_2063)"/>
<path d="M14.692 21.3469H16.4254C16.4254 21.3469 20.3854 21.1203 20.5454 15.9869C20.692 11.4136 16.132 10.9469 15.9454 10.9336H14.1587L18.3854 16.1603C18.5854 16.4136 18.5854 16.7736 18.372 17.0136L14.692 21.3469Z" fill="url(#paint3_linear_267_2063)"/>
<path d="M15.9989 1.86719C10.6655 1.86719 5.85219 4.85385 3.49219 9.60052H11.3722L9.51885 7.30719C9.35885 7.10719 9.33219 6.84052 9.43885 6.60052C9.54552 6.37385 9.78552 6.22719 10.0389 6.22719H16.4255C17.7989 6.34719 21.1055 6.94719 23.5589 9.86719C25.1722 11.8005 25.7055 13.8805 25.8789 15.2939C25.9189 15.6005 25.9322 15.9605 25.9322 16.3739C25.9322 17.7872 25.6389 19.7605 24.3589 21.6672C21.9189 25.2805 17.8522 25.7605 17.0655 25.8139H10.5855C10.3322 25.8139 10.0922 25.6672 9.98552 25.4272C9.87885 25.2005 9.91885 24.9205 10.0789 24.7205L11.8122 22.6805H3.82552C6.21219 26.9339 10.7722 29.8139 15.9989 29.8139C23.7055 29.8139 29.9855 23.5472 29.9855 15.8405C29.9855 8.13385 23.7055 1.86719 15.9989 1.86719Z" fill="url(#paint4_linear_267_2063)"/>
<path d="M15.9998 31.7465C7.33312 31.7465 0.279785 24.6931 0.279785 16.0131C0.279785 7.33312 7.33312 0.279785 15.9998 0.279785C24.6665 0.279785 31.7331 7.33312 31.7331 16.0131C31.7331 24.6931 24.6798 31.7465 15.9998 31.7465ZM15.9998 1.61312C8.06645 1.61312 1.61312 8.07979 1.61312 16.0131C1.61312 23.9465 8.06645 30.4131 16.0131 30.4131C23.9598 30.4131 30.4131 23.9598 30.4131 16.0131C30.4131 8.06645 23.9465 1.61312 15.9998 1.61312Z" fill="url(#paint5_linear_267_2063)"/>
<defs>
<linearGradient id="paint0_linear_267_2063" x1="11.4385" y1="16.0135" x2="24.5985" y2="16.0135" gradientUnits="userSpaceOnUse">
<stop stop-color="#C1E6F8"/>
<stop offset="1" stop-color="#019BD8"/>
</linearGradient>
<linearGradient id="paint1_linear_267_2063" x1="2.02588" y1="16.1474" x2="12.2392" y2="16.1474" gradientUnits="userSpaceOnUse">
<stop stop-color="#C1E6F8"/>
<stop offset="1" stop-color="#019BD8"/>
</linearGradient>
<linearGradient id="paint2_linear_267_2063" x1="9.53271" y1="16.1474" x2="16.986" y2="16.1474" gradientUnits="userSpaceOnUse">
<stop stop-color="#C1E6F8"/>
<stop offset="1" stop-color="#019BD8"/>
</linearGradient>
<linearGradient id="paint3_linear_267_2063" x1="14.1587" y1="16.1469" x2="20.5454" y2="16.1469" gradientUnits="userSpaceOnUse">
<stop stop-color="#C1E6F8"/>
<stop offset="1" stop-color="#019BD8"/>
</linearGradient>
<linearGradient id="paint4_linear_267_2063" x1="3.49219" y1="15.8405" x2="29.9855" y2="15.8405" gradientUnits="userSpaceOnUse">
<stop stop-color="#C1E6F8"/>
<stop offset="1" stop-color="#019BD8"/>
</linearGradient>
<linearGradient id="paint5_linear_267_2063" x1="0.279785" y1="16.0131" x2="31.7331" y2="16.0131" gradientUnits="userSpaceOnUse">
<stop stop-color="#C1E6F8"/>
<stop offset="1" stop-color="#019BD8"/>
</linearGradient>
</defs>
</svg>
