<svg width="84" height="84" viewBox="0 0 84 84" fill="none" xmlns="http://www.w3.org/2000/svg">
<path d="M80.3657 53.2428C78.9641 45.2905 75.765 39.6542 73.7238 36.1807C72.8401 34.6574 69.6716 29.3864 64.0655 23.5669C55.9612 15.1576 47.9786 11.0139 45.3583 9.7346C40.0264 7.11422 35.8217 6.04784 32.8053 5.49974C29.3319 4.89032 26.8947 4.92098 25.6149 4.98188C24.0916 5.04278 21.9891 5.16458 19.43 5.92646C17.5715 6.47498 14.4333 7.41956 11.4777 10.192C8.6444 12.8124 7.4558 15.6763 6.87704 17.1081C5.81066 19.7285 5.56706 21.8613 5.4146 23.293C5.26214 24.6639 4.98788 28.0764 6.08492 33.3781C6.35918 34.6881 7.57802 40.416 11.3862 47.4846C14.5546 53.3651 17.9062 57.2648 19.8563 59.4891C25.8279 66.2834 31.5865 70.2444 33.2925 71.402C36.3392 73.4432 41.7017 76.9472 49.4709 79.1409C56.4786 81.1212 60.9877 80.7558 62.6635 80.5731C66.5632 80.1464 69.0618 79.0191 69.9455 78.5928C70.7682 78.1967 72.7179 77.2521 74.6377 75.5154C79.2077 71.4024 80.335 65.918 80.7315 63.7853C81.4627 59.6722 80.9448 56.5339 80.3661 53.2432L80.3657 53.2428ZM79.9087 63.9066C79.4211 66.3745 78.3854 71.2188 74.3634 74.9056C72.5352 76.5814 70.6767 77.4651 69.7934 77.8914C68.8489 78.3483 66.4725 79.3845 62.7248 79.8108C61.0188 79.9935 56.2963 80.3895 49.2886 78.4399C41.9155 76.368 36.8579 73.0471 33.6588 70.9143C27.0471 66.4661 22.9034 61.9263 20.527 59.245C18.2418 56.7162 15.3778 53.4255 12.5139 48.4288C8.7053 41.726 7.33442 36.1199 7.0295 34.7792C5.78042 29.2646 5.96312 25.4254 6.05468 24.0852C6.17648 22.2569 6.32894 20.4593 7.15172 18.2047C8.61416 14.1219 11.143 11.6238 12.24 10.6485C15.4085 7.8152 18.6383 6.87062 20.1616 6.41366C22.8732 5.65178 25.0668 5.62154 26.8644 5.62154C27.7783 5.62154 30.6121 5.6522 34.8776 6.62702C37.0103 7.11464 40.8491 8.15036 45.785 10.588C48.6183 11.9896 56.723 16.2853 64.7358 25.0297C69.1538 29.8438 71.9568 34.292 73.5411 37.0951C75.8872 41.2081 78.7814 46.4489 79.9087 53.822C80.2741 56.5033 80.7315 59.7633 79.9087 63.9071V63.9066Z" fill="#4480F3"/>
<path d="M59.8376 80.9509C56.6468 80.9509 53.1524 80.4192 49.409 79.3612C41.3752 77.0928 35.8304 73.3779 33.1655 71.5925C27.0708 67.4567 22.4706 62.8103 19.6847 59.6405C17.9934 57.7111 14.4738 53.6971 11.1852 47.5937C8.69836 42.9779 6.80752 37.9463 5.86126 33.4254C5.083 29.6647 4.85662 26.2476 5.18758 23.2686C5.32828 21.9451 5.5639 19.7288 6.66556 17.0227C7.18552 15.7371 8.4031 12.7249 11.3225 10.0251C14.3453 7.1897 17.6108 6.2258 19.3651 5.70836C22.098 4.89482 24.3799 4.80368 25.6055 4.75454C27.8323 4.6487 30.2683 4.82384 32.8446 5.27576C37.0698 6.04394 41.1954 7.43582 45.4584 9.53078C49.2645 11.3893 56.7648 15.6645 64.2295 23.4097C69.3686 28.7441 72.5073 33.6299 73.921 36.0672C75.013 37.9249 76.2801 40.1425 77.4939 42.9422C78.9543 46.3102 79.9669 49.6668 80.5902 53.204C81.1412 56.3368 81.7112 59.5759 80.9556 63.8254C80.7065 65.1673 80.3113 66.9658 79.46 68.996C78.3482 71.6462 76.777 73.897 74.79 75.6854C72.8328 77.4561 70.8067 78.4313 70.0444 78.7988C67.9469 79.8115 65.4034 80.5036 62.6885 80.8006C61.7679 80.9009 60.817 80.9509 59.8376 80.9509ZM26.8886 5.18126C26.4606 5.18126 26.0393 5.19092 25.6256 5.21066C24.4181 5.25896 22.1736 5.34884 19.4949 6.146C17.7762 6.65294 14.5784 7.59668 11.6337 10.359C8.78824 12.9907 7.59712 15.9366 7.0885 17.1941C6.0112 19.8409 5.77978 22.0174 5.6416 23.3177C5.31568 26.2501 5.54038 29.6189 6.30856 33.3322C7.246 37.8106 9.12046 42.7985 11.5875 47.3765C14.8518 53.4342 18.3483 57.4221 20.0283 59.3386C22.7965 62.4881 27.3674 67.1052 33.4212 71.2132C36.0651 72.9848 41.5697 76.6724 49.5337 78.9211C54.3692 80.2877 58.7787 80.767 62.6394 80.3457C65.303 80.0542 67.7953 79.3768 69.8466 78.3868C70.6635 77.9937 72.5762 77.0726 74.4846 75.346C76.4217 73.6026 77.9538 71.4068 79.0395 68.8192C79.8745 66.8288 80.2626 65.0611 80.507 63.7435C81.2479 59.5754 80.6851 56.3763 80.1408 53.283C78.6977 45.0951 75.3339 39.3718 73.5266 36.2969C72.1226 33.8761 69.0062 29.0255 63.9006 23.7259C56.4847 16.0315 49.0373 11.7862 45.2577 9.94028C41.0325 7.8638 36.9459 6.48494 32.7644 5.72474C30.7022 5.36312 28.7311 5.18084 26.8886 5.18084V5.18126ZM59.6683 80.1995C56.4057 80.1995 52.9071 79.6846 49.2271 78.6607C41.6868 76.5418 36.5817 73.1385 33.5317 71.1053C26.5983 66.4403 22.382 61.6834 20.3559 59.3974C17.9497 56.7346 15.1445 53.4791 12.3154 48.5433C8.71642 42.2093 7.26406 36.8438 6.80668 34.8307C5.94484 31.0264 5.6059 27.3056 5.8264 24.0703C5.95576 22.1287 6.1288 20.3412 6.93646 18.1273C8.3401 14.2087 10.766 11.6535 12.0873 10.4787C15.2537 7.64708 18.4848 6.67856 20.0375 6.21278L20.0951 6.19556C22.9494 5.39378 25.3047 5.39378 26.8638 5.39378C29.8722 5.39378 32.9097 5.94356 34.9278 6.40472C38.5116 7.22414 42.1984 8.56268 45.8856 10.3834C48.4094 11.6316 50.9537 13.1407 53.4477 14.8677C57.5981 17.7422 61.4525 21.1093 64.904 24.8755C68.3459 28.6261 71.3187 32.6996 73.7396 36.9828C75.8207 40.6313 78.966 46.1459 80.1345 53.7874L80.1446 53.8622C80.5058 56.5103 80.9552 59.8069 80.1324 63.951C79.701 66.1346 78.6909 71.2485 74.5174 75.0739C72.6942 76.745 70.8315 77.6438 69.936 78.076L69.8919 78.0974C68.5017 78.7703 66.1338 79.6531 62.7498 80.0383C61.7481 80.1458 60.7204 80.1991 59.6679 80.1991L59.6683 80.1995ZM26.8638 5.85074C25.3299 5.85074 23.0124 5.85074 20.2227 6.63446L20.1686 6.65084C18.6477 7.10696 15.4826 8.05574 12.3914 10.8202C11.1024 11.9659 8.73616 14.4586 7.36612 18.2832C6.57736 20.4457 6.41398 22.1274 6.2821 24.1018C6.06454 27.2938 6.40012 30.9688 7.25188 34.7303C7.70464 36.7232 9.14356 42.0371 12.7119 48.3178C15.5179 53.2133 18.3042 56.4469 20.6957 59.0937C22.7108 61.3672 26.9012 66.0947 33.7854 70.7264C36.8123 72.7441 41.88 76.1226 49.3497 78.2218C54.1604 79.5603 58.6523 80.0194 62.6999 79.5855C66.0187 79.2079 68.335 78.3448 69.6933 77.6875L69.7374 77.6661C70.6131 77.2436 72.435 76.3645 74.2087 74.7387C78.2718 71.0141 79.2617 66.0035 79.6842 63.8641C80.4923 59.7943 80.0484 56.5401 79.6918 53.9256L79.6821 53.8542C78.5271 46.3001 75.407 40.8296 73.3422 37.2096C70.9382 32.9559 67.9856 28.9108 64.5672 25.1854C61.1387 21.4441 57.31 18.0996 53.1877 15.2445C50.7122 13.53 48.1872 12.0327 45.6831 10.7941C42.0279 8.98898 38.3751 7.66262 34.8261 6.85118C32.8311 6.39506 29.8298 5.85158 26.8638 5.85158V5.85074Z" fill="#4480F3"/>
<path d="M6.38921 63.754C6.78527 65.8868 7.88231 71.3711 12.483 75.4842C14.4331 77.2209 16.3525 78.1655 17.1752 78.5615C18.0589 78.9882 20.5571 80.1155 24.4572 80.5418C26.133 80.7245 30.6421 81.0903 37.6498 79.1096C45.419 76.916 50.7816 73.4123 53.8282 71.3707C55.5343 70.2434 61.2929 66.2824 67.2645 59.4578C69.2145 57.2335 72.5657 53.364 75.7346 47.4534C79.5432 40.3848 80.762 34.6568 81.0359 33.3468C82.1329 28.0456 81.8586 24.6331 81.7062 23.2618C81.5537 21.8296 81.2795 19.6666 80.2437 17.0769C79.665 15.6447 78.4461 12.7807 75.6431 10.1607C72.6573 7.41855 69.519 6.44373 67.6908 5.89521C65.101 5.13333 63.0292 5.04219 61.5058 4.95063C60.2261 4.88973 57.7582 4.85907 54.3154 5.46849C51.299 5.98635 47.125 7.08339 41.7625 9.70335C39.1421 10.9831 31.1596 15.1268 23.0552 23.5356C17.4491 29.3552 14.2806 34.6262 13.3969 36.1495C11.3557 39.6229 8.15657 45.2593 6.75503 53.2116C6.14561 56.5325 5.62775 59.6708 6.38921 63.7536V63.754ZM7.21199 53.8517C8.30903 46.4479 11.2339 41.2076 13.5796 37.1247C15.1639 34.3217 17.9976 29.8734 22.3849 25.0594C30.3674 16.315 38.5024 12.0192 41.3358 10.6177C46.2716 8.18043 50.0802 7.14429 52.2432 6.65667C54.3453 6.16905 56.8741 5.62095 60.2563 5.65119C61.9321 5.68185 64.857 5.74275 68.4216 6.96117C70.341 7.63149 72.7786 8.45427 75.2159 10.6479C78.2626 13.3901 79.3899 16.6195 79.9384 18.2344C80.7612 20.6108 80.9132 22.4999 81.0354 24.1148C81.127 25.4555 81.3097 29.2943 80.0606 34.8089C79.7561 36.1495 78.4155 41.7557 74.5762 48.4584C71.7429 53.4552 68.8483 56.7152 66.5631 59.2747C64.156 61.956 60.043 66.526 53.4313 70.944C50.2322 73.0767 45.2048 76.3977 37.8015 78.4695C30.7937 80.4196 26.0713 80.0538 24.3652 79.8404C20.6176 79.4137 18.2412 78.378 17.2966 77.921C16.4129 77.4943 14.5544 76.5804 12.7266 74.9352C8.70467 71.2485 7.66895 66.4042 7.18133 63.9363C6.35855 59.7623 6.81551 56.5023 7.21199 53.8512V53.8517Z" fill="url(#paint0_linear_154_6382)"/>
<path d="M27.2829 80.9201C26.3034 80.9201 25.3526 80.8701 24.4323 80.7697C21.7175 80.4727 19.1735 79.7806 17.076 78.768C16.3318 78.4097 14.3549 77.4576 12.3313 75.6558C7.57817 71.4062 6.51473 65.6791 6.16487 63.7966C5.36645 59.5164 5.98469 56.1455 6.53027 53.1719C7.15355 49.6363 8.16617 46.2797 9.62651 42.9117C10.8403 40.112 12.1075 37.8944 13.2003 36.0355C14.6132 33.599 17.7522 28.7132 22.8909 23.3792C30.3552 15.6344 37.856 11.3592 41.6624 9.49985C46.0976 7.33265 50.2237 5.94077 54.2767 5.24483C56.8341 4.79207 59.2705 4.61651 61.5167 4.72403L61.7426 4.73747C63.229 4.82525 65.2647 4.94537 67.7553 5.67743C69.4908 6.19823 72.7189 7.16633 75.7975 9.99377C78.4027 12.4289 79.6552 15.0132 80.4553 16.9927C81.5632 19.7626 81.8131 22.1108 81.9333 23.2389C82.2642 26.2167 82.0374 29.6338 81.2596 33.3941C80.3133 37.9154 78.4225 42.947 75.9357 47.5628C72.6903 53.6167 69.2724 57.5151 67.4361 59.6092C61.7359 66.1234 56.1087 70.1386 53.9541 71.562C51.2905 73.3466 45.7457 77.0619 37.7119 79.3303C33.9689 80.3883 30.474 80.9201 27.2833 80.9201H27.2829ZM60.2172 5.14949C58.3687 5.14949 56.4023 5.33177 54.3552 5.69423C50.3442 6.38303 46.2585 7.76189 41.8628 9.90977C38.0832 11.7557 30.6353 16.001 23.2198 23.6954C18.1147 28.995 14.9979 33.8456 13.5947 36.2652C11.787 39.3413 8.42321 45.0646 6.98009 53.2521C6.44123 56.1883 5.83097 59.5152 6.61385 63.7126C6.95657 65.5569 7.99859 71.1693 12.635 75.3143C14.6102 77.0733 16.5452 78.0052 17.2739 78.3559C19.3256 79.3463 21.8178 80.0238 24.4815 80.3152C25.3857 80.4139 26.3207 80.4631 27.2833 80.4631C30.4316 80.4631 33.884 79.9368 37.5872 78.8906C45.5512 76.6419 51.0553 72.9539 53.7005 71.1819C55.8412 69.7674 61.4284 65.7811 67.0921 59.3085C68.9166 57.2278 72.3119 53.3546 75.5329 47.3465C78 42.7677 79.8744 37.7797 80.8119 33.3008C81.58 29.588 81.8043 26.2192 81.4788 23.288C81.3608 22.1788 81.1155 19.8734 80.0315 17.1628C79.5288 15.9196 78.3511 13.0056 75.4871 10.3285C72.487 7.57331 69.3244 6.62453 67.6251 6.11507C65.1858 5.39771 63.1803 5.27927 61.7157 5.19317L61.4923 5.18015C61.074 5.15999 60.6489 5.15033 60.2176 5.15033L60.2172 5.14949ZM27.3686 80.243C26.0934 80.243 25.0762 80.1603 24.337 80.0679C20.9556 79.6832 18.5876 78.8003 17.1974 78.1275C16.3805 77.7331 14.4666 76.8091 12.5741 75.106C8.39927 71.2789 7.38917 66.165 6.95783 63.9814C6.11027 59.6815 6.61679 56.2929 6.98639 53.8187C8.11955 46.1701 11.2864 40.6588 13.3821 37.0115C15.0189 34.1156 17.8812 29.6632 22.2164 24.9063C25.6533 21.1414 29.5043 17.7739 33.6618 14.8981C36.1466 13.1791 38.6947 11.6704 41.2353 10.4138C44.9657 8.57165 48.6529 7.23269 52.1939 6.43469C54.4695 5.90717 56.9672 5.39477 60.2592 5.42375C61.8732 5.45315 64.8741 5.50775 68.4962 6.74633L68.6151 6.78791C70.5454 7.46159 72.9474 8.29949 75.3695 10.4793C78.5044 13.3009 79.6195 16.584 80.1554 18.1619C80.9996 20.6013 81.1462 22.5404 81.2638 24.0986C81.4843 27.3356 81.1458 31.0564 80.2839 34.8603C79.8198 36.9015 78.3544 42.3233 74.7752 48.5729C71.902 53.6402 68.9149 56.9851 66.7343 59.4274C64.2979 62.1414 60.2205 66.6833 53.5593 71.1345C50.5005 73.1736 45.3815 76.5865 37.8639 78.6898C33.4581 79.9158 29.9049 80.2426 27.3694 80.2426L27.3686 80.243ZM59.9866 5.87945C56.8778 5.87945 54.4833 6.37295 52.2951 6.88031C48.7877 7.67075 45.1354 8.99711 41.4373 10.8233C38.9169 12.0698 36.3881 13.5671 33.9214 15.2736C29.792 18.13 25.9674 21.4745 22.5537 25.2142C18.247 29.9396 15.4049 34.3609 13.7786 37.2379C12.5006 39.4618 11.2612 41.6769 10.1377 44.3326C8.80751 47.4771 7.92425 50.6023 7.43789 53.8859C7.07291 56.3274 6.57353 59.671 7.40555 63.8932C7.82807 66.0327 8.81801 71.0433 12.8811 74.7679C14.7236 76.426 16.5964 77.3303 17.3961 77.7163C18.7548 78.3736 21.0711 79.2367 24.3912 79.6147C26.5693 79.8873 31.1964 80.0716 37.7405 78.2505C45.1879 76.1665 50.2691 72.7788 53.3052 70.7552C59.9185 66.336 63.972 61.821 66.3937 59.1233C68.5605 56.6965 71.5282 53.3727 74.3779 48.3474C77.9273 42.1502 79.3788 36.7805 79.8379 34.7595C80.6901 30.9984 81.0252 27.323 80.8077 24.1314C80.6922 22.6013 80.5481 20.6945 79.7228 18.3102C79.1991 16.7675 78.1096 13.5604 75.0633 10.8187C72.7096 8.70017 70.3555 7.87865 68.4639 7.21883L68.3463 7.17767C64.7931 5.96303 61.8392 5.90927 60.252 5.88029C60.163 5.87945 60.0739 5.87903 59.9862 5.87903L59.9866 5.87945Z" fill="url(#paint1_linear_154_6382)"/>
<path d="M44.1921 21.8105L28.3232 31.4063L44.4533 40.5917L59.5754 31.2946L44.1921 21.8105ZM29.5555 31.3693L44.1547 22.6321L58.2684 31.2946L44.416 39.7702L29.5555 31.3689V31.3693Z" fill="url(#paint2_linear_154_6382)"/>
<path d="M44.4559 40.7583L44.3824 40.7167L28.041 31.4112L44.1925 21.6445L59.8476 31.2957L44.4563 40.7587L44.4559 40.7583ZM28.6051 31.4037L44.4504 40.4269L59.3029 31.2953L44.1909 21.9788L28.6047 31.4041L28.6051 31.4037ZM44.4185 39.9368L29.2712 31.3734L44.1552 22.4661L44.2291 22.5114L58.5414 31.2957L44.4185 39.9368ZM29.839 31.3663L44.413 39.6054L57.9954 31.2949L44.1539 22.7995L29.8395 31.3663H29.839Z" fill="url(#paint3_linear_154_6382)"/>
<path d="M45.0138 41.3048L44.8643 59.563L60.2102 50.9005V32.082L45.0134 41.3044L45.0138 41.3048ZM59.5382 50.4902L45.5736 58.2938L45.7232 41.6782L59.5008 33.2396V50.4898H59.5382V50.4902Z" fill="url(#paint4_linear_154_6382)"/>
<path d="M44.7197 59.8081L44.8718 41.2235L44.9398 41.1824L60.3534 31.8281V50.9835L60.2807 51.0242L44.7197 59.8081ZM45.1557 41.3852L45.0091 59.3171L60.0678 50.8168V50.3573L45.4291 58.5376L45.5811 41.5973L59.6436 32.9844V50.3468H60.0674V32.3355L45.1557 41.3852ZM45.8651 41.7582L45.7189 58.0487L59.3584 50.4266V33.4938L45.8655 41.7578L45.8651 41.7582Z" fill="url(#paint5_linear_154_6382)"/>
<path d="M27.6137 32.0449V50.49L43.669 59.5259L43.8929 41.342L27.6133 32.0449H27.6137ZM43.0344 58.2936L28.3231 50.1167V33.2398L43.2209 41.8276L43.034 58.2936H43.0344Z" fill="url(#paint6_linear_154_6382)"/>
<path d="M43.8087 59.7679L43.5987 59.6499L27.4707 50.5733V31.7988L44.0368 41.2598L44.0359 41.3438L43.8091 59.7679H43.8087ZM27.7563 50.4061L43.5294 59.2828L43.7495 41.424L27.7563 32.2902V50.4061ZM43.1745 58.5344L28.1805 50.2003V32.9925L43.3648 41.7453L43.1745 58.5344ZM28.4657 50.0323L42.8944 58.0522L43.0775 41.9091L28.4661 33.4864V50.0323H28.4657Z" fill="url(#paint7_linear_154_6382)"/>
<path d="M79.162 9.97798C79.162 12.0864 77.4467 13.8017 75.3383 13.8017C73.2299 13.8017 71.5146 12.0864 71.5146 9.97798C71.5146 7.86958 73.2299 6.1543 75.3383 6.1543C77.4467 6.1543 79.162 7.86958 79.162 9.97798Z" fill="#4480F3"/>
<path d="M75.3383 14.0301C73.1039 14.0301 71.2861 12.2123 71.2861 9.97794C71.2861 7.74354 73.1039 5.92578 75.3383 5.92578C77.5727 5.92578 79.3905 7.74354 79.3905 9.97794C79.3905 12.2123 77.5727 14.0301 75.3383 14.0301ZM75.3383 6.38274C73.3559 6.38274 71.7431 7.99554 71.7431 9.97794C71.7431 11.9603 73.3559 13.5731 75.3383 13.5731C77.3207 13.5731 78.9335 11.9603 78.9335 9.97794C78.9335 7.99554 77.3207 6.38274 75.3383 6.38274Z" fill="#4480F3"/>
<path d="M15.2094 10.5268C15.2094 12.6352 13.4942 14.3505 11.3858 14.3505C9.27736 14.3505 7.5625 12.6352 7.5625 10.5268C7.5625 8.4184 9.27778 6.70312 11.3858 6.70312C13.4937 6.70312 15.2094 8.41883 15.2094 10.5268Z" fill="url(#paint8_linear_154_6382)"/>
<path d="M11.3858 14.5785C9.15181 14.5785 7.33447 12.7607 7.33447 10.5263C7.33447 8.29195 9.15181 6.47461 11.3858 6.47461C13.6198 6.47461 15.438 8.29237 15.438 10.5263C15.438 12.7603 13.6202 14.5785 11.3858 14.5785ZM11.3858 6.93115C9.40381 6.93115 7.79101 8.54395 7.79101 10.5263C7.79101 12.5087 9.40381 14.1215 11.3858 14.1215C13.3678 14.1215 14.981 12.5087 14.981 10.5263C14.981 8.54395 13.3682 6.93115 11.3858 6.93115Z" fill="url(#paint9_linear_154_6382)"/>
<path d="M15.8192 73.8393C15.8192 75.9477 14.104 77.663 11.9956 77.663C9.88715 77.663 8.17188 75.9477 8.17188 73.8393C8.17188 71.7309 9.88715 70.0156 11.9956 70.0156C14.104 70.0156 15.8192 71.7309 15.8192 73.8393Z" fill="#4480F3"/>
<path d="M11.9955 77.8914C9.76112 77.8914 7.94336 76.0737 7.94336 73.8393C7.94336 71.6049 9.76112 69.7871 11.9955 69.7871C14.2299 69.7871 16.0477 71.6049 16.0477 73.8393C16.0477 76.0737 14.2299 77.8914 11.9955 77.8914ZM11.9955 70.2441C10.0131 70.2441 8.40032 71.8569 8.40032 73.8393C8.40032 75.8217 10.0131 77.4345 11.9955 77.4345C13.9779 77.4345 15.5907 75.8217 15.5907 73.8393C15.5907 71.8569 13.9779 70.2441 11.9955 70.2441Z" fill="#4480F3"/>
<path d="M78.6747 74.2651C78.6747 76.3735 76.9594 78.0888 74.851 78.0888C72.7426 78.0888 71.0273 76.3735 71.0273 74.2651C71.0273 72.1567 72.7426 70.4414 74.851 70.4414C76.9594 70.4414 78.6747 72.1571 78.6747 74.2651Z" fill="url(#paint10_linear_154_6382)"/>
<path d="M74.851 78.3172C72.6166 78.3172 70.7988 76.4995 70.7988 74.265C70.7988 72.0306 72.6166 70.2129 74.851 70.2129C77.0854 70.2129 78.9031 72.0306 78.9031 74.265C78.9031 76.4995 77.0854 78.3172 74.851 78.3172ZM74.851 70.6699C72.8686 70.6699 71.2558 72.2826 71.2558 74.265C71.2558 76.2475 72.8686 77.8602 74.851 77.8602C76.8334 77.8602 78.4462 76.2475 78.4462 74.265C78.4462 72.2826 76.8334 70.6699 74.851 70.6699Z" fill="url(#paint11_linear_154_6382)"/>
<defs>
<linearGradient id="paint0_linear_154_6382" x1="6.00869" y1="42.8061" x2="81.8519" y2="42.8061" gradientUnits="userSpaceOnUse">
<stop stop-color="white"/>
<stop offset="0.94" stop-color="#48AFFB"/>
</linearGradient>
<linearGradient id="paint1_linear_154_6382" x1="5.78309" y1="42.8063" x2="82.0807" y2="42.8063" gradientUnits="userSpaceOnUse">
<stop stop-color="white"/>
<stop offset="0.94" stop-color="#48AFFB"/>
</linearGradient>
<linearGradient id="paint2_linear_154_6382" x1="28.3232" y1="31.2013" x2="59.5754" y2="31.2013" gradientUnits="userSpaceOnUse">
<stop stop-color="#C1E6F8"/>
<stop offset="0.94" stop-color="#19A1D9"/>
</linearGradient>
<linearGradient id="paint3_linear_154_6382" x1="28.041" y1="31.2012" x2="59.8472" y2="31.2012" gradientUnits="userSpaceOnUse">
<stop stop-color="#C1E6F8"/>
<stop offset="0.94" stop-color="#19A1D9"/>
</linearGradient>
<linearGradient id="paint4_linear_154_6382" x1="44.8643" y1="45.8227" x2="60.2106" y2="45.8227" gradientUnits="userSpaceOnUse">
<stop stop-color="#C1E6F8"/>
<stop offset="0.94" stop-color="#19A1D9"/>
</linearGradient>
<linearGradient id="paint5_linear_154_6382" x1="44.7197" y1="45.8183" x2="60.353" y2="45.8183" gradientUnits="userSpaceOnUse">
<stop stop-color="#C1E6F8"/>
<stop offset="0.94" stop-color="#19A1D9"/>
</linearGradient>
<linearGradient id="paint6_linear_154_6382" x1="27.6137" y1="45.7852" x2="43.8933" y2="45.7852" gradientUnits="userSpaceOnUse">
<stop stop-color="#C1E6F8"/>
<stop offset="0.94" stop-color="#19A1D9"/>
</linearGradient>
<linearGradient id="paint7_linear_154_6382" x1="27.4707" y1="45.7832" x2="44.0368" y2="45.7832" gradientUnits="userSpaceOnUse">
<stop stop-color="#C1E6F8"/>
<stop offset="0.94" stop-color="#19A1D9"/>
</linearGradient>
<linearGradient id="paint8_linear_154_6382" x1="7.5625" y1="10.5268" x2="15.2094" y2="10.5268" gradientUnits="userSpaceOnUse">
<stop stop-color="white"/>
<stop offset="0.94" stop-color="#48AFFB"/>
</linearGradient>
<linearGradient id="paint9_linear_154_6382" x1="7.33405" y1="10.5263" x2="15.4375" y2="10.5263" gradientUnits="userSpaceOnUse">
<stop stop-color="white"/>
<stop offset="0.94" stop-color="#48AFFB"/>
</linearGradient>
<linearGradient id="paint10_linear_154_6382" x1="71.0278" y1="74.2655" x2="78.6747" y2="74.2655" gradientUnits="userSpaceOnUse">
<stop stop-color="white"/>
<stop offset="0.94" stop-color="#48AFFB"/>
</linearGradient>
<linearGradient id="paint11_linear_154_6382" x1="70.7988" y1="74.265" x2="78.9027" y2="74.265" gradientUnits="userSpaceOnUse">
<stop stop-color="white"/>
<stop offset="0.94" stop-color="#48AFFB"/>
</linearGradient>
</defs>
</svg>
