<svg width="38" height="38" viewBox="0 0 38 38" fill="none" xmlns="http://www.w3.org/2000/svg">
<g clip-path="url(#clip0_154_2572)">
<path d="M19 38C29.4934 38 38 29.4934 38 19C38 8.50659 29.4934 0 19 0C8.50659 0 0 8.50659 0 19C0 29.4934 8.50659 38 19 38Z" fill="url(#paint0_linear_154_2572)"/>
<path d="M19.0005 36.686C28.7769 36.686 36.7022 28.7607 36.7022 18.9844C36.7022 9.20802 28.7769 1.28271 19.0005 1.28271C9.22413 1.28271 1.29883 9.20802 1.29883 18.9844C1.29883 28.7607 9.22413 36.686 19.0005 36.686Z" fill="url(#paint1_linear_154_2572)"/>
<path d="M18.9995 35.4349C28.0763 35.4349 35.4345 28.0767 35.4345 18.9999C35.4345 9.92314 28.0763 2.56494 18.9995 2.56494C9.92265 2.56494 2.56445 9.92314 2.56445 18.9999C2.56445 28.0767 9.92265 35.4349 18.9995 35.4349Z" fill="black"/>
<path d="M11.1949 23.7656C11.3374 23.6231 11.5274 23.5439 11.7332 23.5439H30.1949C30.5274 23.5439 30.7015 23.9556 30.464 24.1931L26.8224 27.8348C26.6799 27.9773 26.4899 28.0564 26.284 28.0564H7.82236C7.48986 28.0564 7.3157 27.6448 7.5532 27.4073L11.1949 23.7656Z" fill="url(#paint2_linear_154_2572)"/>
<path d="M11.1949 10.1494C11.3374 10.0069 11.5274 9.92773 11.7332 9.92773H30.1949C30.5274 9.92773 30.7015 10.3394 30.464 10.5769L26.8224 14.2186C26.6799 14.3611 26.4899 14.4402 26.284 14.4402H7.82236C7.48986 14.4402 7.3157 14.0286 7.5532 13.7911L11.1949 10.1494Z" fill="url(#paint3_linear_154_2572)"/>
<path d="M26.8065 16.9101C26.664 16.7676 26.474 16.6885 26.2682 16.6885H7.82236C7.48986 16.6885 7.3157 17.1001 7.5532 17.3376L11.1949 20.9793C11.3374 21.1218 11.5274 21.201 11.7332 21.201H30.1949C30.5274 21.201 30.7015 20.7893 30.464 20.5518L26.8224 16.9101H26.8065Z" fill="url(#paint4_linear_154_2572)"/>
</g>
<defs>
<linearGradient id="paint0_linear_154_2572" x1="0" y1="19" x2="38" y2="19" gradientUnits="userSpaceOnUse">
<stop stop-color="#B0B1B1"/>
<stop offset="0.04" stop-color="#C4C5C5"/>
<stop offset="0.15" stop-color="#EEEEEE"/>
<stop offset="0.2" stop-color="white"/>
<stop offset="0.52" stop-color="white"/>
<stop offset="0.81" stop-color="white"/>
<stop offset="0.99" stop-color="#BEBEBE"/>
</linearGradient>
<linearGradient id="paint1_linear_154_2572" x1="1.29883" y1="18.9844" x2="36.7022" y2="18.9844" gradientUnits="userSpaceOnUse">
<stop stop-color="#B0B1B1"/>
<stop offset="0.04" stop-color="#C4C5C5"/>
<stop offset="0.15" stop-color="#EEEEEE"/>
<stop offset="0.2" stop-color="white"/>
<stop offset="0.52" stop-color="white"/>
<stop offset="0.81" stop-color="white"/>
<stop offset="0.99" stop-color="#BEBEBE"/>
</linearGradient>
<linearGradient id="paint2_linear_154_2572" x1="28.4215" y1="7.75812" x2="15.644" y2="32.2206" gradientUnits="userSpaceOnUse">
<stop stop-color="#00FFA3"/>
<stop offset="1" stop-color="#DC1FFF"/>
</linearGradient>
<linearGradient id="paint3_linear_154_2572" x1="22.8324" y1="4.8294" x2="10.0707" y2="29.3077" gradientUnits="userSpaceOnUse">
<stop stop-color="#00FFA3"/>
<stop offset="1" stop-color="#DC1FFF"/>
</linearGradient>
<linearGradient id="paint4_linear_154_2572" x1="25.619" y1="6.28597" x2="12.8415" y2="30.7485" gradientUnits="userSpaceOnUse">
<stop stop-color="#00FFA3"/>
<stop offset="1" stop-color="#DC1FFF"/>
</linearGradient>
<clipPath id="clip0_154_2572">
<rect width="38" height="38" rx="19" fill="white"/>
</clipPath>
</defs>
</svg>
