<svg width="38" height="38" viewBox="0 0 38 38" fill="none" xmlns="http://www.w3.org/2000/svg">
<g clip-path="url(#clip0_154_2608)">
<path d="M19.1272 37.8575C29.5507 37.8575 38.0006 29.4076 38.0006 18.9842C38.0006 8.56072 29.5507 0.11084 19.1272 0.11084C8.70378 0.11084 0.253906 8.56072 0.253906 18.9842C0.253906 29.4076 8.70378 37.8575 19.1272 37.8575Z" fill="url(#paint0_linear_154_2608)"/>
<path d="M19.1277 36.5592C28.8341 36.5592 36.7027 28.6906 36.7027 18.9842C36.7027 9.27777 28.8341 1.40918 19.1277 1.40918C9.42133 1.40918 1.55273 9.27777 1.55273 18.9842C1.55273 28.6906 9.42133 36.5592 19.1277 36.5592Z" fill="url(#paint1_linear_154_2608)"/>
<path d="M19.1269 35.3085C28.1425 35.3085 35.4511 27.9999 35.4511 18.9843C35.4511 9.96873 28.1425 2.66016 19.1269 2.66016C10.1113 2.66016 2.80273 9.96873 2.80273 18.9843C2.80273 27.9999 10.1113 35.3085 19.1269 35.3085Z" fill="black"/>
<path d="M30.7329 15.9599C29.7513 15.0574 28.3896 13.6641 27.2813 12.6824L27.2179 12.6349C27.1071 12.5399 26.9804 12.4766 26.8538 12.4291C24.1938 11.9382 11.7804 9.61074 11.5429 9.64241C11.4796 9.64241 11.4163 9.67408 11.3529 9.72158L11.2896 9.76908C11.2896 9.76908 11.1471 9.94324 11.1154 10.0382V10.0857L11.0996 10.3232V10.3549C12.4929 14.2499 18.0188 26.9799 19.0954 29.9724C19.1588 30.1782 19.2854 30.5582 19.5229 30.5741H19.5704C19.6971 30.5741 20.2196 29.8774 20.2196 29.8774C20.2196 29.8774 29.6879 18.3824 30.6538 17.1632C30.7804 17.0049 30.8913 16.8466 30.9863 16.6724C31.0338 16.4032 30.9388 16.1182 30.7329 15.9441V15.9599ZM22.6738 17.2899L26.7113 13.9332L29.0863 16.1182L22.6738 17.2899ZM21.0904 17.0682L14.1238 11.3682L25.3813 13.4424L21.0746 17.0682H21.0904ZM21.7238 18.5724L28.8488 17.4166L20.7104 27.2332L21.7238 18.5724ZM13.1896 11.9382L20.5204 18.1607L19.4596 27.2491L13.1896 11.9541V11.9382Z" fill="#FF060A"/>
</g>
<defs>
<linearGradient id="paint0_linear_154_2608" x1="0.26974" y1="18.9842" x2="38.0006" y2="18.9842" gradientUnits="userSpaceOnUse">
<stop stop-color="#B0B1B1"/>
<stop offset="0.04" stop-color="#C4C5C5"/>
<stop offset="0.15" stop-color="#EEEEEE"/>
<stop offset="0.2" stop-color="white"/>
<stop offset="0.52" stop-color="white"/>
<stop offset="0.81" stop-color="white"/>
<stop offset="0.99" stop-color="#BEBEBE"/>
</linearGradient>
<linearGradient id="paint1_linear_154_2608" x1="1.55273" y1="18.9842" x2="36.7186" y2="18.9842" gradientUnits="userSpaceOnUse">
<stop stop-color="#B0B1B1"/>
<stop offset="0.04" stop-color="#C4C5C5"/>
<stop offset="0.15" stop-color="#EEEEEE"/>
<stop offset="0.2" stop-color="white"/>
<stop offset="0.52" stop-color="white"/>
<stop offset="0.81" stop-color="white"/>
<stop offset="0.99" stop-color="#BEBEBE"/>
</linearGradient>
<clipPath id="clip0_154_2608">
<rect width="38" height="38" rx="19" fill="white"/>
</clipPath>
</defs>
</svg>
