<svg width="32" height="32" viewBox="0 0 32 32" fill="none" xmlns="http://www.w3.org/2000/svg">
<path d="M8.76717 1.90771C4.95391 1.90771 1.88672 5.00254 1.88672 8.78817C1.88672 12.5738 4.98154 15.6686 8.76717 15.6686C12.5528 15.6686 15.6476 12.5738 15.6476 8.78817C15.6476 5.00254 12.5528 1.90771 8.76717 1.90771ZM9.95537 9.94873V13.4028H8.21453V9.9211C8.21453 9.9211 4.67759 9.78294 4.70522 8.95397C4.73285 8.125 8.21453 7.9592 8.21453 7.9592V8.12499C8.21453 8.12499 5.2855 8.29079 5.2026 8.87107C5.11971 9.42372 8.21453 9.64477 8.21453 9.64477H9.95537C10.3422 9.64477 12.9949 9.42372 12.912 8.8987C12.8291 8.40132 10.5356 8.20789 10.0106 8.18026V9.31319H8.21453V6.9368H5.72762V5.27886H12.4146V6.9368H9.983V7.98684C10.5356 8.01447 13.3818 8.23553 13.4094 8.9816C13.437 9.75531 10.3422 9.9211 9.92773 9.94873H9.95537Z" fill="url(#paint0_linear_154_6373)"/>
<path d="M20.4281 14.2587L20.5662 14.5903L20.7597 14.2587L21.1189 14.231L20.8702 13.9547L20.9531 13.5955L20.6215 13.7613L20.2899 13.5679L20.3452 13.9547L20.0688 14.1758L20.4281 14.2587Z" fill="url(#paint1_linear_154_6373)"/>
<path d="M25.2073 15.7253L26.6166 15.145C26.6166 14.4818 26.81 14.0397 27.1692 13.8187C27.3903 13.7081 27.86 13.57 28.6614 14.0121L30.043 13.045L28.7719 11.0002C27.639 11.0831 26.9205 10.8344 26.5613 10.2817C26.285 9.83961 26.285 9.25933 26.5613 8.56852C26.6718 8.2922 26.7824 8.04351 26.8653 7.87771L25.5942 5.88818L24.1849 6.77242C24.1849 7.46323 23.9915 7.93298 23.6046 8.15404C23.0796 8.45799 22.4164 8.23693 22.0849 8.07114L14.2925 12.6581C13.9609 13.3213 13.1596 14.0121 12.7451 14.3437L13.4083 15.2832L13.7399 15.8082H16.1715L14.8728 13.8463L22.8586 8.92774L26.1468 14.095L23.3836 15.8082H25.2902L25.2349 15.6977H25.2073V15.7253ZM23.3283 8.51326L23.881 8.15404L27.3074 13.6529L26.7547 14.0121L23.3283 8.51326Z" fill="url(#paint2_linear_154_6373)"/>
<path d="M22.1966 15.7522L25.2085 13.9008L22.6387 9.83887L15.8135 14.0666L16.974 15.8351H20.4004L19.9583 14.8403L18.632 14.5916L19.6267 13.6798L19.4609 12.3258L20.6491 13.0166L21.865 12.4363L21.5886 13.7627L22.5281 14.7574L21.1742 14.8956L20.6768 15.8351H22.2242L22.1966 15.7522Z" fill="url(#paint3_linear_154_6373)"/>
<path d="M17.4157 6.5232L20.1513 8.42984L20.8145 8.04298L17.7473 5.88766L18.1342 5.33501L21.45 7.68376L22.0856 7.32454L22.2514 7.43507C22.4724 7.57323 22.9974 7.76666 23.2461 7.60087C23.4396 7.49034 23.5225 7.13112 23.4948 6.6061V6.41267L23.9369 6.13635L23.7712 5.99819C22.6659 6.55084 21.8369 6.63373 21.2842 6.21925C20.925 5.97056 20.7316 5.52844 20.6763 4.92053C20.6487 4.47841 20.6763 4.06393 20.7316 3.81523L18.7421 2.57178L17.7197 4.06393C18.0236 4.67184 18.0513 5.16922 17.8026 5.52844C17.6091 5.8324 17.2499 5.99819 16.7802 6.05345H16.3657L15.4814 7.26928C15.6749 7.98772 15.6749 8.6509 15.6196 9.25881L17.4157 6.55084V6.5232Z" fill="url(#paint4_linear_154_6373)"/>
<path d="M2.18896 17.2154V31.0316C2.18896 31.0316 2.27186 31.225 2.38239 31.225H28.191C28.191 31.225 28.3844 31.1421 28.3844 31.0316V17.2154C28.3844 17.2154 28.3015 17.022 28.191 17.022H2.38239C2.38239 17.022 2.18896 17.1049 2.18896 17.2154ZM20.7303 28.7381C20.5921 28.9868 20.3987 29.2078 20.1224 29.3736C19.846 29.5671 19.5145 29.7052 19.1276 29.8158C18.7407 29.9263 18.2986 29.9815 17.8012 29.9815H15.867V25.9472H17.8289C18.3539 25.9472 18.796 26.0025 19.1829 26.113C19.5697 26.2235 19.9013 26.3617 20.1776 26.5551C20.454 26.7486 20.6474 26.942 20.7855 27.1907C20.9237 27.4394 20.979 27.6881 20.979 27.9644C20.979 28.2407 20.8961 28.4894 20.7579 28.7381H20.7303ZM25.1791 26.6933H23.8251V30.0092H22.6093V26.6933H21.2553V25.9472H25.1791V26.6933ZM17.8289 19.4536C17.9118 19.2049 18.0499 18.9839 18.2157 18.8181C18.3815 18.6247 18.6026 18.4865 18.8513 18.376C19.1 18.2654 19.4316 18.2102 19.7631 18.2102C20.0947 18.2102 20.3711 18.2654 20.6197 18.3483C20.8684 18.4312 21.0895 18.5694 21.2553 18.7075C21.4211 18.8733 21.5592 19.0668 21.6421 19.2602C21.725 19.4813 21.7803 19.7023 21.7803 19.951C21.7803 20.1721 21.7803 20.3655 21.6974 20.5313C21.6421 20.7247 21.5592 20.9181 21.4487 21.1116C21.3382 21.305 21.2 21.4984 21.0066 21.7195C20.8408 21.9129 20.6474 22.134 20.3987 22.3827L19.321 23.5432H21.8632V24.6761H17.6907V23.709L19.5697 21.6089C19.5697 21.6089 19.7908 21.3603 19.9013 21.2221C20.0118 21.0839 20.0947 20.9458 20.1776 20.8352C20.2605 20.6971 20.3158 20.5589 20.3711 20.4484C20.4263 20.3379 20.454 20.1721 20.454 20.0615C20.454 19.8405 20.3987 19.6747 20.2605 19.5365C20.1224 19.3984 19.9566 19.3431 19.7079 19.3431C19.4592 19.3431 19.2658 19.426 19.1276 19.5918C18.9894 19.7576 18.9342 19.9786 18.9342 20.255H17.6355C17.6355 19.9786 17.6907 19.7023 17.7736 19.4536H17.8289ZM13.7393 18.5141H15.9222V24.7314H14.6512V19.6194H13.7393V18.5141ZM13.6564 25.892C13.8774 25.9472 14.0709 26.0301 14.2367 26.1407C14.4025 26.2512 14.513 26.3617 14.5959 26.5275C14.6788 26.6657 14.7341 26.8315 14.7341 27.0249H13.6011C13.6011 27.0249 13.5182 26.7486 13.3801 26.6657C13.2695 26.5828 13.1037 26.5275 12.8827 26.5275C12.6893 26.5275 12.5235 26.5551 12.4129 26.638C12.3024 26.7209 12.2195 26.8315 12.2195 26.942C12.2195 27.0801 12.3024 27.2183 12.4958 27.3012C12.6616 27.3841 12.9103 27.467 13.2143 27.5223C13.7946 27.6604 14.209 27.8539 14.4577 28.0749C14.7064 28.296 14.817 28.5723 14.817 28.8763C14.817 29.0144 14.7893 29.1802 14.7064 29.3184C14.6235 29.4565 14.513 29.5947 14.3472 29.7329C14.1814 29.871 13.988 29.9539 13.7393 30.0368C13.4906 30.1197 13.2143 30.1473 12.8827 30.1473C12.6064 30.1473 12.33 30.1197 12.109 30.0644C11.8603 30.0092 11.6669 29.9263 11.5011 29.8158C11.3353 29.7052 11.1971 29.5671 11.0866 29.4013C10.9761 29.2355 10.9208 29.042 10.8932 28.8486H12.0813C12.109 29.042 12.1919 29.1802 12.33 29.2907C12.4682 29.4013 12.6616 29.4565 12.9379 29.4565C13.159 29.4565 13.3524 29.4013 13.4906 29.2907C13.6288 29.1802 13.684 29.0697 13.684 28.9315C13.684 28.7657 13.6011 28.6276 13.4353 28.517C13.2695 28.4065 13.0208 28.3236 12.6616 28.2407C12.0813 28.1025 11.6945 27.9368 11.4458 27.7157C11.2247 27.4946 11.0866 27.2459 11.0866 26.9696C11.0866 26.8038 11.1418 26.638 11.2247 26.4999C11.3076 26.3617 11.4458 26.2512 11.6116 26.1407C11.7774 26.0301 11.9708 25.9749 12.1919 25.9196C12.4129 25.8643 12.6616 25.8367 12.9103 25.8367C13.1866 25.8367 13.4353 25.8643 13.6564 25.9196V25.892ZM11.3076 22.0787C11.1142 21.9405 10.8103 21.83 10.3958 21.6918C10.0642 21.6089 9.8155 21.4984 9.59444 21.3879C9.37338 21.2774 9.20758 21.1392 9.06942 21.001C8.93126 20.8629 8.84836 20.7247 8.7931 20.5589C8.73783 20.3931 8.7102 20.2273 8.7102 20.0615C8.7102 19.8957 8.73783 19.7023 8.82073 19.5641C8.90363 19.426 8.98653 19.2878 9.12469 19.1497C9.26285 19.0115 9.42864 18.9286 9.59444 18.8457C9.78786 18.7628 9.98129 18.7075 10.2023 18.6799V18.0167H11.2247V18.6523C11.7221 18.7352 12.0813 18.901 12.3577 19.1773C12.6064 19.4536 12.7722 19.7576 12.7722 20.1444H11.5287C11.5287 19.951 11.4182 19.8128 11.28 19.7023C11.1418 19.5918 10.9484 19.5365 10.6997 19.5365C10.4787 19.5365 10.2852 19.5918 10.1471 19.6747C10.0089 19.7576 9.92602 19.8957 9.92602 20.0615C9.92602 20.1444 9.92602 20.2273 9.98129 20.2826C10.0366 20.3379 10.0918 20.4208 10.1747 20.4484C10.2576 20.5036 10.3681 20.5589 10.5339 20.6142C10.6721 20.6694 10.8655 20.7247 11.0589 20.78C11.6945 20.9734 12.1642 21.2221 12.4406 21.4984C12.7169 21.7747 12.8551 22.1063 12.8551 22.4932C12.8551 22.659 12.8274 22.8248 12.7445 22.9906C12.6893 23.1564 12.5787 23.3222 12.4406 23.4603C12.3024 23.5985 12.1366 23.7366 11.9156 23.8472C11.6945 23.9577 11.4734 24.0406 11.1695 24.0682V24.8419H10.1471V24.0959C9.6497 24.013 9.26284 23.8472 8.95889 23.5708C8.65493 23.2945 8.48914 22.9077 8.43388 22.4655H9.7326C9.76023 22.7142 9.87076 22.9077 10.0089 23.0458C10.1747 23.184 10.3958 23.2669 10.6997 23.2669C10.9761 23.2669 11.1695 23.2116 11.3353 23.0735C11.4734 22.9353 11.5563 22.7971 11.5563 22.6037C11.5563 22.3827 11.4734 22.2169 11.28 22.0787H11.3076ZM5.75354 25.9472H6.94173V28.4618C6.94173 28.7657 7.02463 28.9868 7.19042 29.1526C7.35621 29.3184 7.60491 29.4013 7.90886 29.4013C8.10229 29.4013 8.26808 29.4013 8.37861 29.3184C8.51677 29.2631 8.59967 29.2078 8.68257 29.1249C8.76547 29.042 8.82073 28.9315 8.84836 28.821C8.87599 28.7105 8.90363 28.5723 8.90363 28.4618V25.9472H10.0918V28.3789C10.0918 28.6828 10.0366 28.9592 9.92602 29.1802C9.81549 29.4013 9.67733 29.5947 9.4839 29.7329C9.29048 29.871 9.06942 29.9815 8.7931 30.0368C8.51677 30.0921 8.24045 30.1473 7.90886 30.1473C7.60491 30.1473 7.32858 30.1197 7.05226 30.0644C6.80357 30.0092 6.55488 29.8987 6.36145 29.7605C6.16802 29.6223 6.00223 29.4565 5.8917 29.2355C5.78117 29.0144 5.72591 28.7381 5.72591 28.4341V25.9472H5.75354Z" fill="url(#paint5_linear_154_6373)"/>
<path d="M16.3112 1.68557L16.6151 1.13293L17.1402 0.828971L16.6151 0.525015L16.3112 0L16.0072 0.525015L15.4546 0.828971L16.0072 1.13293L16.3112 1.68557Z" fill="url(#paint6_linear_154_6373)"/>
<path d="M17.5805 7.46143L15.2041 11.0536C15.2041 11.0536 15.1212 11.33 15.0659 11.4681L19.5147 8.84304L17.5805 7.48906V7.46143Z" fill="url(#paint7_linear_154_6373)"/>
<path d="M25.4565 16.3326V16.2773H22.6657L22.5828 16.3326V16.2773H1.72035C1.52692 16.2773 1.3335 16.4431 1.3335 16.6642V31.6133C1.3335 31.8067 1.49929 32.0002 1.72035 32.0002H28.9659C29.1593 32.0002 29.3527 31.8344 29.3527 31.6133V16.6642C29.3527 16.4708 29.1869 16.2773 28.9659 16.2773H25.65L25.4842 16.3326H25.4565ZM28.8001 17.2168V31.033C28.8001 31.3922 28.5237 31.6686 28.1645 31.6686H2.35589C1.99667 31.6686 1.72035 31.3922 1.72035 31.033V17.2168C1.72035 16.8576 1.99667 16.5813 2.35589 16.5813H28.1645C28.5237 16.5813 28.8001 16.8576 28.8001 17.2168Z" fill="url(#paint8_linear_154_6373)"/>
<path d="M19.2108 27.0547C19.045 26.9442 18.8516 26.8613 18.6029 26.806C18.3542 26.7508 18.0779 26.7231 17.7463 26.7231H17.0278V29.2653H17.7463C18.0779 29.2653 18.3818 29.2377 18.6305 29.1548C18.8792 29.0719 19.0726 28.989 19.2384 28.8785C19.4042 28.7679 19.5147 28.6298 19.5976 28.464C19.6805 28.2982 19.7082 28.1324 19.7082 27.9666C19.7082 27.7732 19.6529 27.6074 19.57 27.4416C19.4871 27.2758 19.3766 27.1376 19.2108 27.0271V27.0547Z" fill="url(#paint9_linear_154_6373)"/>
<path d="M12.9659 15.8335L12.8554 15.6677L12.1093 14.6177C11.4461 14.9769 10.7829 15.198 10.3408 15.3085L10.8106 15.7506L10.7 15.8611H12.9659V15.8335Z" fill="url(#paint10_linear_154_6373)"/>
<defs>
<linearGradient id="paint0_linear_154_6373" x1="1.88672" y1="8.78817" x2="15.6476" y2="8.78817" gradientUnits="userSpaceOnUse">
<stop stop-color="#C1E6F8"/>
<stop offset="1" stop-color="#019BD8"/>
</linearGradient>
<linearGradient id="paint1_linear_154_6373" x1="20.0688" y1="14.0653" x2="21.1189" y2="14.0653" gradientUnits="userSpaceOnUse">
<stop stop-color="#C1E6F8"/>
<stop offset="1" stop-color="#019BD8"/>
</linearGradient>
<linearGradient id="paint2_linear_154_6373" x1="12.7451" y1="10.8344" x2="30.043" y2="10.8344" gradientUnits="userSpaceOnUse">
<stop stop-color="#C1E6F8"/>
<stop offset="1" stop-color="#019BD8"/>
</linearGradient>
<linearGradient id="paint3_linear_154_6373" x1="15.8135" y1="12.8508" x2="25.2085" y2="12.8508" gradientUnits="userSpaceOnUse">
<stop stop-color="#C1E6F8"/>
<stop offset="1" stop-color="#019BD8"/>
</linearGradient>
<linearGradient id="paint4_linear_154_6373" x1="15.4814" y1="5.91529" x2="23.9369" y2="5.91529" gradientUnits="userSpaceOnUse">
<stop stop-color="#C1E6F8"/>
<stop offset="1" stop-color="#019BD8"/>
</linearGradient>
<linearGradient id="paint5_linear_154_6373" x1="2.18896" y1="24.1235" x2="28.3844" y2="24.1235" gradientUnits="userSpaceOnUse">
<stop stop-color="#C1E6F8"/>
<stop offset="1" stop-color="#019BD8"/>
</linearGradient>
<linearGradient id="paint6_linear_154_6373" x1="15.4546" y1="0.856603" x2="17.1402" y2="0.856603" gradientUnits="userSpaceOnUse">
<stop stop-color="#C1E6F8"/>
<stop offset="1" stop-color="#019BD8"/>
</linearGradient>
<linearGradient id="paint7_linear_154_6373" x1="15.0659" y1="9.45096" x2="19.5147" y2="9.45096" gradientUnits="userSpaceOnUse">
<stop stop-color="#C1E6F8"/>
<stop offset="1" stop-color="#019BD8"/>
</linearGradient>
<linearGradient id="paint8_linear_154_6373" x1="1.3335" y1="24.1249" x2="29.3527" y2="24.1249" gradientUnits="userSpaceOnUse">
<stop stop-color="#C1E6F8"/>
<stop offset="1" stop-color="#019BD8"/>
</linearGradient>
<linearGradient id="paint9_linear_154_6373" x1="17.0278" y1="27.9942" x2="19.7082" y2="27.9942" gradientUnits="userSpaceOnUse">
<stop stop-color="#C1E6F8"/>
<stop offset="1" stop-color="#019BD8"/>
</linearGradient>
<linearGradient id="paint10_linear_154_6373" x1="10.3408" y1="15.2256" x2="12.9659" y2="15.2256" gradientUnits="userSpaceOnUse">
<stop stop-color="#C1E6F8"/>
<stop offset="1" stop-color="#019BD8"/>
</linearGradient>
</defs>
</svg>
